<svg width="422" height="432" viewBox="0 0 422 432" fill="none" xmlns="http://www.w3.org/2000/svg">
<path d="M298.219 45.9175C298.219 23.2738 316.575 4.91748 339.219 4.91748H411.219C416.742 4.91748 421.219 9.39463 421.219 14.9175V87.9175C421.219 110.561 402.862 128.917 380.219 128.917H302.919C300.323 128.917 298.219 126.813 298.219 124.217V45.9175Z" fill="black"/>
<path d="M12.2188 348.917C12.2188 326.274 30.5751 307.917 53.2188 307.917H125.219C130.742 307.917 135.219 312.395 135.219 317.917V390.917C135.219 413.561 116.862 431.917 94.2187 431.917H16.9187C14.323 431.917 12.2188 429.813 12.2188 427.217V348.917Z" fill="black"/>
<path d="M57.2499 160.167C25.6316 128.443 25.718 77.093 57.4427 45.4747L93.544 9.49452C98.8054 4.25081 107.321 4.26513 112.565 9.5265L358.524 256.313C393.164 291.07 393.069 347.326 358.313 381.966L324.761 415.405C321.123 419.031 315.235 419.021 311.609 415.383L57.2499 160.167Z" fill="black"/>
</svg>
